<?xml version="1.0" ?><svg data-name="Camada 1" id="Camada_1" viewBox="0 0 512 512" xmlns="http://www.w3.org/2000/svg"><defs><style>.cls-1,.cls-3{fill:#0f4c05;}.cls-1,.cls-2,.cls-3{stroke:#43cc2f;stroke-linecap:round;stroke-linejoin:round;}.cls-1,.cls-2{stroke-width:5px;}.cls-2{fill:none;}.cls-3{stroke-width:2px;}</style></defs><title/><circle class="cls-1" cx="256" cy="256" r="114"/><path class="cls-2" d="M428,256A172,172,0,0,1,256,428"/><path class="cls-3" d="M466.12,219.12,460.24,221a1.68,1.68,0,0,1-2-.76l-.8-1.4a1.57,1.57,0,0,0-1.32-.79l-11.82-.37a.59.59,0,0,0-.53.29l-1.61,2.69a1.72,1.72,0,0,0-.21,1.22l1.06,5.43a1.67,1.67,0,0,1-.15,1.09l-.61,1.2a.56.56,0,0,1-.4.3L433,231.56a1.53,1.53,0,0,1-1.69-.91l-.52-1.23a1.53,1.53,0,0,0-1.69-.91l-6.89,1.28a1.53,1.53,0,0,0-1.25,1.45l0,1.33a1.53,1.53,0,0,1-1.25,1.45l-8.88,1.65a.56.56,0,0,1-.48-.13l-1-.9a1.67,1.67,0,0,1-.53-1l-1-5.44a1.72,1.72,0,0,0-.64-1.06l-2.47-1.93a.59.59,0,0,0-.6-.08l-10.89,4.6a1.57,1.57,0,0,0-.94,1.21l-.24,1.59a1.68,1.68,0,0,1-1.57,1.42l-6.18.34a2.06,2.06,0,0,1-2.18-2l0-11.2a2.06,2.06,0,0,1,2-2.08l5.84-.25a1.36,1.36,0,0,1,1.41,1.37v.65c0,.73.69.92,1.42.93h.49a1.3,1.3,0,0,0,1.26-.87,93.67,93.67,0,0,1,6.35-12.94c2.86-4.67,6.87-9.84,6.87-9.84a2.18,2.18,0,0,0-.74-3.14l-3-1.62a.94.94,0,0,1-.48-.76c-.17-2.6.1-8.28,1.24-19.84,1.33-13.51,3.51-20.77,3.51-20.77a1.8,1.8,0,0,1,1.45-1.47l2.56-.48a1.8,1.8,0,0,1,1.88.85s4.64,6,10.74,18.13c5.22,10.38,7.51,15.58,8.28,18.07a.94.94,0,0,1-.18.88l-2.17,2.58a2.18,2.18,0,0,0,.44,3.2s5.6,3.38,9.95,6.71a93.67,93.67,0,0,1,10.57,9.79,1.3,1.3,0,0,0,1.49.36l.45-.19c.67-.28,1.22-.69,1-1.38l-.24-.6a1.36,1.36,0,0,1,.82-1.79l5.54-1.87a2.06,2.06,0,0,1,2.59,1.23l4,10.46A2.06,2.06,0,0,1,466.12,219.12Z"/><path class="cls-2" d="M84,254.16A172,172,0,0,1,257.84,84"/><path class="cls-3" d="M45.49,290.63l5.91-1.84a1.68,1.68,0,0,1,2,.79l.78,1.41a1.57,1.57,0,0,0,1.31.81l11.81.5a.59.59,0,0,0,.53-.28l1.64-2.67a1.72,1.72,0,0,0,.23-1.22l-1-5.44a1.67,1.67,0,0,1,.16-1.09l.62-1.19a.56.56,0,0,1,.4-.29l8.9-1.56a1.53,1.53,0,0,1,1.68.93l.51,1.24a1.53,1.53,0,0,0,1.68.92l6.91-1.21A1.53,1.53,0,0,0,90.78,279l.06-1.33a1.53,1.53,0,0,1,1.26-1.44l8.9-1.56a.56.56,0,0,1,.48.14l1,.91a1.67,1.67,0,0,1,.52,1l.91,5.45a1.72,1.72,0,0,0,.62,1.07l2.45,2a.59.59,0,0,0,.6.09l10.94-4.48a1.57,1.57,0,0,0,1-1.2l.26-1.59a1.68,1.68,0,0,1,1.58-1.41l6.18-.27a2.06,2.06,0,0,1,2.16,2.07l-.09,11.2a2.06,2.06,0,0,1-2,2.06l-5.85.19a1.36,1.36,0,0,1-1.4-1.39v-.65c0-.73-.68-.92-1.41-.95l-.49,0a1.3,1.3,0,0,0-1.27.86,93.67,93.67,0,0,1-6.49,12.87c-2.91,4.64-7,9.76-7,9.76a2.18,2.18,0,0,0,.71,3.15l2.93,1.66a.94.94,0,0,1,.47.76c.14,2.6-.19,8.28-1.45,19.82-1.48,13.5-3.73,20.74-3.73,20.74a1.8,1.8,0,0,1-1.47,1.46l-2.56.45a1.8,1.8,0,0,1-1.87-.87s-4.58-6-10.55-18.24c-5.11-10.43-7.34-15.66-8.09-18.16a.94.94,0,0,1,.19-.88l2.2-2.55a2.18,2.18,0,0,0-.4-3.21s-5.57-3.44-9.88-6.81a93.67,93.67,0,0,1-10.47-9.9,1.3,1.3,0,0,0-1.49-.38l-.45.18c-.68.27-1.22.67-1,1.37l.23.61a1.36,1.36,0,0,1-.84,1.78l-5.56,1.81A2.06,2.06,0,0,1,48,303.81L44.17,293.3A2.06,2.06,0,0,1,45.49,290.63Z"/></svg>